<svg width="22" height="22" viewBox="0 0 22 22" fill="none" xmlns="http://www.w3.org/2000/svg">
<path d="M20.6447 7.29776C20.5581 6.164 19.6912 4.71047 18.8243 4.01277C17.8495 3.29876 16.8366 2.63884 15.7902 2.03597C14.7517 1.41673 13.681 0.853888 12.5827 0.349868C11.996 0.109093 11.3669 -0.00957735 10.7334 0.00101932C10.0996 -0.0123771 9.46994 0.106399 8.88404 0.349868C7.7859 0.854246 6.71523 1.41708 5.67657 2.03597C4.0006 3.05344 2.64248 4.01277 2.64248 4.01277C2.109 4.46195 1.6723 5.0076 1.35135 5.61603C1.10357 6.08576 1.48365 6.59995 2.01472 6.59995C2.60465 6.59995 3.12827 6.25659 3.50919 5.80614C3.67205 5.61357 3.85207 5.4342 4.04789 5.27046C4.04789 5.27046 5.16926 4.48381 6.55307 3.64948C7.41067 3.14199 8.2947 2.68047 9.20141 2.26688C9.68518 2.06723 10.2051 1.96984 10.7284 1.98082C11.2515 1.97213 11.7709 2.06944 12.2553 2.26688C13.1622 2.68017 14.0462 3.1417 14.9037 3.64948C15.7677 4.14383 16.604 4.68497 17.4089 5.27046C18.1246 5.84257 18.8404 7.03447 18.912 7.96415C18.912 7.96415 19.079 9.34675 19.1029 10.9844C19.1014 11.9958 19.0456 13.0064 18.9358 14.0118C18.7694 15.0646 18.2269 16.0215 17.4089 16.7055C17.4089 16.7055 16.2875 17.516 14.9037 18.3504C14.0461 18.8578 13.1621 19.3194 12.2553 19.733C11.7716 19.9326 11.2517 20.03 10.7284 20.019C10.2058 20.03 9.68634 19.9351 9.20141 19.7401C8.29456 19.3268 7.41051 18.8653 6.55307 18.3575C5.16926 17.547 4.04789 16.7127 4.04789 16.7127C3.87041 16.5708 3.69294 16.3909 3.52493 16.1863C3.15343 15.7338 2.63159 15.3999 2.04619 15.3999C1.50345 15.3999 1.1257 15.9283 1.38846 16.4032C1.73453 17.0287 2.18851 17.6013 2.64248 17.9667C2.64248 17.9667 4.0006 18.9842 5.67657 19.9726C6.71504 20.5918 7.78573 21.1547 8.88404 21.6587C9.47135 21.8965 10.1004 22.0122 10.7334 21.9988C11.3672 22.0122 11.9968 21.8934 12.5827 21.65C13.6809 21.1456 14.7515 20.5828 15.7902 19.9639C17.4662 18.9464 18.8243 17.958 18.8243 17.958C19.8151 17.1238 20.472 15.9568 20.6736 14.673C20.8066 13.4469 20.8741 12.2144 20.8759 10.981C20.847 8.98386 20.6447 7.29776 20.6447 7.29776Z" fill="url(#paint0_linear_5904_3139)"/>
<path d="M0.878906 8.58062C0.878906 8.33762 1.0759 8.14062 1.31891 8.14062H8.13891C8.38191 8.14062 8.57891 8.33762 8.57891 8.58062V9.90061C8.57891 10.1436 8.38191 10.3406 8.13891 10.3406H0.878906V8.58062Z" fill="#0066B3"/>
<path d="M0.878906 11.6602H14.7389C14.9819 11.6602 15.1789 11.8571 15.1789 12.1002V13.4201C15.1789 13.6631 14.9819 13.8601 14.7389 13.8601H1.31891C1.0759 13.8601 0.878906 13.6631 0.878906 13.4201V11.6602Z" fill="#EE2F53"/>
<defs>
<linearGradient id="paint0_linear_5904_3139" x1="10.9126" y1="0" x2="10.9126" y2="21.9998" gradientUnits="userSpaceOnUse">
<stop stop-color="#0066B3"/>
<stop offset="0.354167" stop-color="#0066B3"/>
<stop offset="0.6875" stop-color="#EE2F53"/>
<stop offset="1" stop-color="#EE2F53"/>
</linearGradient>
</defs>
</svg>
