<svg width="150" height="40" viewBox="0 0 150 40" fill="none" xmlns="http://www.w3.org/2000/svg">
<rect x="2.5" y="14.167" width="18.3333" height="22.5" fill="white"/>
<path fill-rule="evenodd" clip-rule="evenodd" d="M103.332 14.5439C100.827 14.8999 100.277 16.2114 100.281 21.829C100.284 26.3528 100.575 28.0378 101.499 28.8817C102.26 29.5773 103.341 29.7651 106.253 29.7079C108.465 29.6644 109.003 29.5635 109.704 29.0608C110.817 28.2616 111.232 26.5617 111.12 23.2572C111.058 21.4422 110.923 20.6375 110.556 19.8968C109.956 18.6874 108.947 18.4103 105.362 18.4706L103.313 18.5052L103.314 17.9588C103.314 17.2588 103.427 16.8667 103.699 16.613L103.916 16.4104L106.731 16.3687C110.125 16.3183 109.911 16.3961 109.958 15.1975L109.987 14.4482L106.924 14.4585C105.239 14.4642 103.623 14.5027 103.332 14.5439ZM129.009 14.6923C128.775 14.9241 128.763 14.9724 128.763 15.6525V16.3687H131.076C132.627 16.3687 133.459 16.3374 133.6 16.2736C133.915 16.1316 134.072 15.7213 134.072 15.041V14.4482H131.663H129.255L129.009 14.6923ZM33.538 18.4625C33.538 19.0894 33.5546 19.1534 33.7733 19.3701L34.0087 19.6034L36.4489 19.6479C37.8889 19.6741 39.017 19.7311 39.2013 19.7868C39.8062 19.9699 39.9979 20.4746 40.0438 22.0047L40.0689 22.8397L37.7725 22.8619L35.4762 22.8841V23.7178V24.5514H37.8064H40.1367L40.0792 25.616C40.011 26.8821 39.9216 27.2569 39.6152 27.5604C39.2972 27.8755 38.8895 27.9189 36.1733 27.9265L33.879 27.933L33.6458 28.164C33.4373 28.3705 33.4095 28.4652 33.3822 29.0616L33.3516 29.7282H36.4303C40.4927 29.7282 41.3 29.6071 42.0981 28.8781C42.9176 28.1297 43.0965 27.2571 43.0967 24.0087C43.0968 21.4668 43.0325 20.7712 42.7075 19.7927C42.5646 19.3623 42.4292 19.1532 42.0502 18.7777C41.2023 17.9376 40.3497 17.7956 36.1293 17.791L33.538 17.7881V18.4625ZM61.3325 17.8682C58.9858 18.0615 58.1807 18.662 57.7459 20.5435C57.5283 21.4855 57.5291 26.3974 57.747 27.3068C58.2254 29.3029 59.1552 29.729 63.0302 29.7276C66.6549 29.7264 67.6609 29.2919 68.1433 27.5191C68.4495 26.3937 68.487 22.3113 68.2057 20.7133C67.9068 19.0148 67.2289 18.3021 65.6231 17.9984C64.8575 17.8536 62.4111 17.7793 61.3325 17.8682ZM91.1601 17.8684C88.5569 18.0826 87.751 18.8255 87.4678 21.2721C87.3184 22.5628 87.3978 26.668 87.5872 27.4439C87.9333 28.8621 88.7051 29.4381 90.5482 29.6534C91.69 29.7868 95.1712 29.7046 95.8791 29.5274C97.2673 29.18 97.8314 28.4967 98.0919 26.8471C98.2318 25.9609 98.2341 21.9801 98.0952 21.0863C97.7762 19.0336 97.1653 18.322 95.4422 17.996C94.6861 17.853 92.2349 17.7799 91.1601 17.8684ZM115.427 17.8445L113.847 17.8753V18.4635C113.847 19.6196 113.859 19.6241 116.94 19.6287C118.274 19.6307 119.532 19.664 119.734 19.7026C120.579 19.8644 120.858 20.3346 120.91 21.6834L120.946 22.6171L118.134 22.651C115.751 22.6796 115.253 22.7071 114.871 22.8305C114.26 23.0281 113.732 23.5223 113.514 24.1013C113.265 24.761 113.151 25.9234 113.255 26.7507C113.383 27.7673 113.565 28.1944 114.1 28.7368C114.96 29.6083 115.814 29.772 119.154 29.7046C121.295 29.6613 122.222 29.5868 123.327 29.3687L123.833 29.269L123.857 25.5534C123.871 23.408 123.845 21.4961 123.795 21.0294C123.597 19.1788 122.908 18.3248 121.346 17.9948C120.659 17.8497 118.269 17.789 115.427 17.8445ZM45.4205 23.0693C45.4207 26.2148 45.4526 28.1296 45.508 28.327C45.6244 28.7424 45.97 29.1337 46.3856 29.3207C46.6402 29.4354 46.9336 29.4745 47.5478 29.4759L48.3694 29.4777V27.0563V24.6349H48.9538C49.2752 24.6349 49.6363 24.6719 49.7563 24.717C49.9014 24.7717 50.1893 25.1276 50.6174 25.7816C52.8178 29.1431 52.7921 29.1079 53.1923 29.2999C53.5427 29.4679 53.6788 29.4801 54.9711 29.4589L56.3704 29.436L54.5068 26.6388C53.4817 25.1004 52.6298 23.7853 52.6137 23.7164C52.5975 23.6475 53.392 22.37 54.3791 20.8775L56.174 18.1639L54.9051 18.1391C53.3777 18.1095 53.1679 18.1417 52.7991 18.4624C52.642 18.5991 51.9939 19.5085 51.3591 20.4832C50.7241 21.4577 50.0945 22.3586 49.9598 22.4848C49.7348 22.6959 49.6607 22.7145 49.0422 22.7145H48.3694V20.4183V18.1221H46.8947H45.42L45.4205 23.0693ZM70.8713 23.1528C70.873 27.8652 70.883 28.2046 71.0287 28.5175C71.3494 29.206 71.8757 29.4777 72.8884 29.4777H73.5645L73.5864 25.1678L73.6082 20.858L74.8643 24.8312C75.5552 27.0165 76.1738 28.9134 76.2388 29.0465C76.419 29.415 76.6613 29.4777 77.9059 29.4777C79.1345 29.4777 79.4133 29.4091 79.5824 29.0648C79.6401 28.9475 80.2725 27.0457 80.9876 24.8386L82.288 20.8258L82.3301 24.8804C82.3533 27.1104 82.4053 29.0021 82.4456 29.0842C82.5956 29.389 82.9484 29.4777 84.0113 29.4777H85.0267V23.7999V18.1221H83.0557C81.3019 18.1221 81.0646 18.1382 80.9021 18.2687C80.765 18.3787 80.3863 19.4414 79.3839 22.5294C78.6495 24.7922 78.0216 26.7083 77.9888 26.7874C77.9249 26.941 77.6145 26.0266 76.096 21.2115C75.4207 19.0704 75.196 18.4582 75.0305 18.31C74.8255 18.1264 74.7756 18.1221 72.845 18.1221H70.8694L70.8713 23.1528ZM126.403 23.2842L126.445 28.4464L126.671 28.7849C127.027 29.317 127.476 29.4896 128.43 29.4601L129.211 29.436L131.452 25.8374C132.684 23.8582 133.757 22.1486 133.836 22.0383C133.971 21.8483 133.979 22.028 133.983 25.4416L133.987 29.0454L134.247 29.2615C134.497 29.4706 134.543 29.4777 135.637 29.4777H136.768V23.7999V18.1221H135.429C134.276 18.1221 134.067 18.1423 133.918 18.2682C133.823 18.3486 132.755 20.0112 131.543 21.963C130.331 23.9147 129.304 25.5473 129.262 25.5909C129.214 25.6394 129.184 24.2962 129.184 22.1402V18.6102L128.938 18.3662L128.691 18.1221H127.526L126.361 18.122L126.403 23.2842ZM142.127 18.31C141.96 18.4583 141.691 19.1749 140.852 21.7125C139.402 26.0918 138.354 29.2477 138.306 29.3733C138.276 29.4535 138.518 29.4773 139.351 29.4759C140.591 29.4738 140.977 29.3585 141.343 28.8815C141.49 28.6888 141.968 27.3204 142.869 24.5096C143.952 21.1343 144.219 20.3854 144.398 20.2304C144.601 20.0542 144.69 20.0425 145.83 20.0425H147.045L147.068 24.5166L147.091 28.9905L147.367 29.2342L147.642 29.4777H148.82H149.999V23.7999V18.1221H146.169H142.34L142.127 18.31ZM64.775 20.0076C65.2402 20.3479 65.3252 20.823 65.3707 23.3407C65.3951 24.688 65.3756 25.8832 65.3223 26.3113C65.1477 27.7124 65.0811 27.7569 63.1087 27.7935C61.2993 27.827 61.0989 27.7718 60.8194 27.1635C60.6479 26.79 60.6339 26.6118 60.6039 24.4218C60.5573 21.0363 60.6839 20.2748 61.3498 19.9354C61.6028 19.8066 61.8356 19.7898 63.0897 19.8102C64.4027 19.8316 64.5596 19.85 64.775 20.0076ZM94.5351 19.959C95.0959 20.3163 95.2208 21.1804 95.1801 24.4261C95.138 27.7982 95.1311 27.8079 92.7612 27.8076C91.1613 27.8075 90.9092 27.7334 90.6307 27.1815C90.4717 26.8667 90.4621 26.6806 90.4621 23.9252C90.4621 19.6993 90.4166 19.7759 92.9059 19.8127C94.0075 19.8289 94.3839 19.8628 94.5351 19.959ZM107.42 20.5659C107.984 20.871 108.116 21.526 108.114 24.0087C108.113 26.6239 107.951 27.3784 107.329 27.671C106.893 27.8757 104.574 27.8686 104.156 27.6615C103.468 27.3212 103.315 26.4479 103.314 22.8649L103.313 20.4688L103.756 20.4349C103.999 20.4162 104.862 20.4049 105.673 20.4097C106.912 20.417 107.191 20.442 107.42 20.5659ZM120.926 26.0569C120.926 27.6521 120.912 27.8182 120.778 27.8696C120.697 27.9008 119.853 27.9278 118.903 27.9296C117.31 27.9328 117.153 27.9197 116.881 27.7619C116.431 27.501 116.337 27.2328 116.305 26.1303C116.284 25.3971 116.309 25.0878 116.407 24.8542C116.62 24.349 116.815 24.3079 119.008 24.3042L120.926 24.3009V26.0569Z" fill="white"/>
<path fill-rule="evenodd" clip-rule="evenodd" d="M3.22331 3.19568L0 6.39145L0.00101132 21.7545C0.00185402 34.3037 0.0225844 37.194 0.114523 37.535C0.459101 38.813 1.38632 39.6685 2.69326 39.914C3.30329 40.0287 20.8821 40.0287 21.4921 39.914C22.5758 39.7105 23.4062 39.0765 23.8758 38.0945L24.1433 37.535L24.1653 20.2152C24.1899 0.951116 24.2299 2.31796 23.615 1.42555C23.2576 0.906945 22.6358 0.407716 22.0787 0.192043C21.7283 0.0563605 21.1176 0.043502 14.073 0.0226277L6.44663 0L3.22331 3.19568ZM13.2124 18.8175C13.4389 19.0417 13.4413 19.056 13.4684 20.3572C13.5038 22.0557 13.463 22.3094 13.0885 22.7202C12.5467 23.3145 11.8005 23.3601 11.2138 22.8349C10.754 22.4233 10.6854 22.0926 10.7174 20.4425C10.7432 19.1135 10.7531 19.0443 10.9444 18.8426C11.1968 18.5768 11.3323 18.5485 12.2433 18.572C12.9233 18.5896 13.0025 18.6097 13.2124 18.8175ZM8.80525 23.6691C12.3604 24.8175 11.8594 24.8224 15.6169 23.6019C18.483 22.671 18.6967 22.6296 18.9886 22.9492C19.1467 23.1223 19.548 24.3398 19.5495 24.6509C19.5517 25.1252 19.3144 25.2472 16.8539 26.0371C14.8899 26.6676 14.5326 26.8069 14.5109 26.9507C14.494 27.0625 14.9752 27.7897 15.9224 29.0834C17.421 31.1305 17.512 31.3122 17.2348 31.7043C17.1662 31.8013 16.8487 32.0726 16.5293 32.3074C15.9602 32.7253 15.6565 32.8181 15.3003 32.6827C15.2262 32.6544 14.5366 31.773 13.768 30.7237C12.9994 29.6744 12.3179 28.7727 12.2537 28.7199C12.1895 28.6671 12.0841 28.644 12.0196 28.6686C11.9549 28.6931 11.2537 29.5948 10.4612 30.6722C9.66876 31.7497 8.95963 32.6544 8.88531 32.6826C8.46463 32.8425 7.86514 32.5704 7.14708 31.8936C6.81101 31.5768 6.74031 31.2949 6.91567 30.9701C6.96514 30.8787 7.61199 29.9763 8.35323 28.9648C9.25256 27.7376 9.69228 27.0684 9.67492 26.9534C9.65267 26.8061 9.31213 26.673 7.33146 26.0371C4.86531 25.2454 4.63483 25.1264 4.63483 24.6447C4.63483 24.4497 4.87517 23.655 5.09941 23.1084C5.18419 22.9017 5.56239 22.7083 5.81461 22.7425C5.93048 22.7582 7.27626 23.1752 8.80525 23.6691Z" fill="#005DA6"/>
</svg>
