<svg width="24" height="24" viewBox="0 0 24 24" fill="none" xmlns="http://www.w3.org/2000/svg">
<path d="M22.5262 16.95C22.4865 16.9163 18 13.683 16.7745 13.9132C16.1895 14.0168 15.855 14.4157 15.1838 15.2145C15.0758 15.3435 14.8162 15.6525 14.6145 15.8722C14.1903 15.7339 13.7765 15.5655 13.3762 15.3682C11.3104 14.3625 9.64124 12.6934 8.6355 10.6275C8.43815 10.2273 8.26972 9.81351 8.1315 9.38925C8.352 9.18675 8.661 8.92725 8.793 8.81625C9.588 8.14875 9.98775 7.81425 10.0912 7.22775C10.3035 6.01275 7.0875 1.51725 7.05375 1.47675C6.90776 1.26844 6.7173 1.09518 6.49615 0.969492C6.275 0.843805 6.02868 0.768834 5.775 0.75C4.4715 0.75 0.75 5.57775 0.75 6.39075C0.75 6.438 0.81825 11.241 6.741 17.2658C12.7597 23.1817 17.562 23.25 17.6092 23.25C18.423 23.25 23.25 19.5285 23.25 18.225C23.2315 17.9721 23.1569 17.7265 23.0318 17.506C22.9066 17.2854 22.7339 17.0955 22.5262 16.95Z" fill="#071437"/>
</svg>
