<svg width="34" height="34" viewBox="0 0 34 34" fill="none" xmlns="http://www.w3.org/2000/svg">
<path opacity="0.3" d="M13.9555 30.0763L7.45297 24.7638C6.89694 24.3148 6.44816 23.7473 6.13935 23.1027C5.83055 22.4581 5.6695 21.7527 5.66797 21.038V10.6255C5.66849 9.70048 5.93616 8.79529 6.43878 8.01873C6.94141 7.24218 7.65761 6.6273 8.5013 6.24801L15.018 3.27301C15.6449 2.98629 16.3261 2.83789 17.0155 2.83789C17.7048 2.83789 18.3861 2.98629 19.013 3.27301L25.5013 6.24801C26.345 6.6273 27.0612 7.24218 27.5638 8.01873C28.0665 8.79529 28.3341 9.70048 28.3346 10.6255V21.038C28.3348 21.7516 28.176 22.4563 27.8696 23.1008C27.5633 23.7452 27.1172 24.3134 26.5638 24.7638L20.0613 30.0763C19.2026 30.787 18.123 31.1758 17.0084 31.1758C15.8938 31.1758 14.8141 30.787 13.9555 30.0763Z" fill="#F6B100"/>
<path d="M19.8352 20.8263C19.6988 20.8277 19.5635 20.8022 19.4371 20.7511C19.3107 20.7 19.1956 20.6245 19.0985 20.5288L13.4318 14.9896C13.2329 14.7904 13.1211 14.5203 13.1211 14.2388C13.1211 13.9572 13.2329 13.6872 13.4318 13.4879C13.6352 13.2915 13.9069 13.1816 14.1897 13.1816C14.4725 13.1816 14.7443 13.2915 14.9477 13.4879L20.6143 19.0271C20.8133 19.2263 20.9251 19.4964 20.9251 19.7779C20.9251 20.0595 20.8133 20.3296 20.6143 20.5288C20.5108 20.6277 20.3885 20.705 20.2547 20.756C20.1209 20.8071 19.9783 20.831 19.8352 20.8263Z" fill="#F6B100"/>
<path d="M14.1695 20.8256C14.0277 20.8266 13.8872 20.7995 13.7559 20.746C13.6246 20.6926 13.5052 20.6137 13.4045 20.5139C13.2055 20.3147 13.0937 20.0447 13.0938 19.7631C13.0937 19.4815 13.2055 19.2115 13.4045 19.0123L19.0711 13.4731C19.1611 13.342 19.2794 13.2327 19.4172 13.1534C19.555 13.074 19.7089 13.0267 19.8675 13.0147C20.0261 13.0028 20.1853 13.0266 20.3335 13.0844C20.4816 13.1422 20.6149 13.2325 20.7235 13.3487C20.8321 13.4649 20.9132 13.604 20.9609 13.7557C21.0086 13.9075 21.0216 14.0679 20.999 14.2254C20.9763 14.3828 20.9187 14.5331 20.8302 14.6653C20.7417 14.7974 20.6247 14.908 20.4878 14.9889L14.8211 20.5281C14.6436 20.6978 14.414 20.8026 14.1695 20.8256Z" fill="#F6B100"/>
</svg>
