<svg width="32" height="32" viewBox="0 0 32 32" fill="none" xmlns="http://www.w3.org/2000/svg">
<g clip-path="url(#clip0_3776_12466)">
<path d="M26.2773 31.4545C19.4482 32.1831 12.561 32.1831 5.73189 31.4545C4.40574 31.3145 3.16766 30.7241 2.22405 29.7818C1.28045 28.8396 0.688339 27.6023 0.546435 26.2764C-0.182145 19.4473 -0.182145 12.56 0.546435 5.73091C0.686478 4.40476 1.27685 3.16668 2.21913 2.22308C3.16141 1.27947 4.39866 0.687362 5.72462 0.545458C12.5537 -0.183121 19.441 -0.183121 26.2701 0.545458C27.5962 0.685501 28.8343 1.27588 29.7779 2.21816C30.7215 3.16044 31.3136 4.39769 31.4555 5.72364C32.1841 12.5527 32.1841 19.44 31.4555 26.2691C31.3155 27.5952 30.7251 28.8333 29.7828 29.7769C28.8405 30.7205 27.6033 31.3126 26.2773 31.4545Z" fill="#1B96D2"/>
<path d="M25 8.5668L22.1528 23.3339C22.1528 23.3339 21.7544 24.3578 20.66 23.8667L14.0907 18.6848L14.0602 18.6695C14.9476 17.8498 21.8286 11.4849 22.1293 11.1963C22.5949 10.7495 22.3059 10.4835 21.7653 10.821L11.6012 17.4616L7.67987 16.1042C7.67987 16.1042 7.06277 15.8784 7.0034 15.3874C6.94326 14.8956 7.70018 14.6295 7.70018 14.6295L23.6861 8.17783C23.6861 8.17783 25 7.58393 25 8.5668Z" fill="white"/>
</g>
<defs>
<clipPath id="clip0_3776_12466">
<rect width="32" height="32" fill="white"/>
</clipPath>
</defs>
</svg>
