<svg width="32" height="32" viewBox="0 0 32 32" fill="none" xmlns="http://www.w3.org/2000/svg">
<g clip-path="url(#clip0_3776_12473)">
<path d="M26.2773 31.4545C19.4482 32.1831 12.561 32.1831 5.73189 31.4545C4.40574 31.3145 3.16766 30.7241 2.22405 29.7818C1.28045 28.8396 0.688339 27.6023 0.546435 26.2764C-0.182145 19.4473 -0.182145 12.56 0.546435 5.73091C0.686478 4.40476 1.27685 3.16668 2.21913 2.22308C3.16141 1.27947 4.39866 0.687362 5.72462 0.545458C12.5537 -0.183121 19.441 -0.183121 26.2701 0.545458C27.5962 0.685501 28.8343 1.27588 29.7779 2.21816C30.7215 3.16044 31.3136 4.39769 31.4555 5.72364C32.1841 12.5527 32.1841 19.44 31.4555 26.2691C31.3155 27.5952 30.7251 28.8333 29.7828 29.7769C28.8405 30.7205 27.6033 31.3126 26.2773 31.4545Z" fill="#29A71A"/>
<path d="M23.0544 8.94585C21.3897 7.26457 19.1791 6.2335 16.8211 6.03861C14.4632 5.84373 12.1132 6.49786 10.1951 7.88301C8.27703 9.26817 6.91703 11.2932 6.36047 13.5927C5.80391 15.8923 6.08741 18.3151 7.15984 20.424L6.10712 25.5349C6.09619 25.5858 6.09588 25.6384 6.10621 25.6894C6.11653 25.7404 6.13727 25.7887 6.16712 25.8313C6.21084 25.896 6.27326 25.9458 6.34604 25.974C6.41881 26.0023 6.49847 26.0077 6.57439 25.9895L11.5835 24.8022C13.6865 25.8475 16.0922 26.1128 18.3724 25.5508C20.6527 24.9889 22.6596 23.6362 24.0361 21.7334C25.4126 19.8306 26.0694 17.5012 25.8897 15.1596C25.7099 12.8181 24.7052 10.6162 23.0544 8.94585ZM21.4926 21.4113C20.3408 22.5598 18.8576 23.318 17.2521 23.579C15.6466 23.8399 13.9997 23.5905 12.5435 22.8658L11.8453 22.5204L8.77439 23.2477L8.78348 23.2095L9.41985 20.1186L9.07803 19.444C8.33395 17.9827 8.07147 16.3234 8.32818 14.7037C8.58489 13.0841 9.34763 11.5873 10.5071 10.4277C11.964 8.9712 13.9398 8.153 15.9998 8.153C18.0599 8.153 20.0357 8.9712 21.4926 10.4277C21.505 10.4419 21.5183 10.4553 21.5326 10.4677C22.9714 11.9279 23.7747 13.8977 23.7672 15.9477C23.7597 17.9977 22.9421 19.9616 21.4926 21.4113Z" fill="white"/>
<path d="M21.2215 19.1443C20.8451 19.737 20.2506 20.4624 19.5033 20.6424C18.1942 20.9588 16.1851 20.6533 13.6851 18.3224L13.6542 18.2952C11.4561 16.257 10.8851 14.5606 11.0233 13.2152C11.0997 12.4515 11.7361 11.7606 12.2724 11.3097C12.3572 11.2373 12.4578 11.1858 12.566 11.1592C12.6743 11.1327 12.7873 11.1318 12.896 11.1567C13.0046 11.1817 13.106 11.2316 13.1918 11.3027C13.2777 11.3738 13.3458 11.464 13.3906 11.5661L14.1997 13.3843C14.2523 13.5021 14.2718 13.6321 14.2561 13.7603C14.2404 13.8884 14.1901 14.0098 14.1106 14.1115L13.7015 14.6424C13.6137 14.7521 13.5608 14.8854 13.5494 15.0254C13.5381 15.1654 13.5689 15.3056 13.6379 15.4279C13.867 15.8297 14.4161 16.4206 15.0251 16.9679C15.7088 17.5861 16.467 18.1515 16.947 18.3443C17.0754 18.3967 17.2166 18.4095 17.3524 18.381C17.4882 18.3525 17.6123 18.284 17.7088 18.1843L18.1833 17.7061C18.2749 17.6158 18.3888 17.5514 18.5133 17.5194C18.6379 17.4875 18.7687 17.4892 18.8924 17.5243L20.8142 18.0697C20.9202 18.1022 21.0174 18.1586 21.0983 18.2344C21.1792 18.3102 21.2417 18.4036 21.281 18.5072C21.3203 18.6109 21.3354 18.7222 21.3251 18.8326C21.3148 18.9431 21.2793 19.0496 21.2215 19.1443Z" fill="white"/>
</g>
<defs>
<clipPath id="clip0_3776_12473">
<rect width="32" height="32" fill="white"/>
</clipPath>
</defs>
</svg>
